<svg xmlns="http://www.w3.org/2000/svg" width="20.205" height="16.164" viewBox="0 0 20.205 16.164"><defs><style>.a{fill:#343434;}</style></defs><g transform="translate(-987.617 -430)"><g transform="translate(989.3 432.021)"><rect class="a" width="0.674" height="11.113"/></g><g transform="translate(990.984 432.021)"><rect class="a" width="1.01" height="9.429"/></g><g transform="translate(993.005 432.021)"><rect class="a" width="0.674" height="9.429"/></g><g transform="translate(994.352 432.021)"><rect class="a" width="1.01" height="9.429"/></g><g transform="translate(996.035 432.021)"><rect class="a" width="0.674" height="9.429"/></g><g transform="translate(987.617 430)"><path class="a" d="M.337,51.2A.318.318,0,0,0,0,51.537v1.684H.674V51.874H2.021V51.2Z" transform="translate(0 -51.2)"/></g><g transform="translate(997.383 432.021)"><rect class="a" width="0.674" height="11.113"/></g><g transform="translate(1000.413 432.021)"><rect class="a" width="1.01" height="9.429"/></g><g transform="translate(1002.434 432.021)"><rect class="a" width="0.674" height="9.429"/></g><g transform="translate(1003.781 432.021)"><rect class="a" width="1.01" height="9.429"/></g><g transform="translate(1005.465 432.021)"><rect class="a" width="0.674" height="11.113"/></g><g transform="translate(987.617 444.144)"><path class="a" d="M.674,410.947V409.6H0v1.684a.318.318,0,0,0,.337.337H2.021v-.674Z" transform="translate(0 -409.6)"/></g><g transform="translate(1005.801 444.144)"><path class="a" d="M462.147,409.6v1.347H460.8v.674h1.684a.318.318,0,0,0,.337-.337V409.6Z" transform="translate(-460.8 -409.6)"/></g><g transform="translate(1005.801 430)"><path class="a" d="M462.484,51.2H460.8v.674h1.347v1.347h.674V51.537A.318.318,0,0,0,462.484,51.2Z" transform="translate(-460.8 -51.2)"/></g><g transform="translate(990.647 442.123)"><rect class="a" width="0.674" height="1.01"/></g><g transform="translate(991.994 442.123)"><rect class="a" width="0.674" height="1.01"/></g><g transform="translate(993.341 442.123)"><rect class="a" width="0.674" height="1.01"/></g><g transform="translate(994.688 442.123)"><rect class="a" width="0.674" height="1.01"/></g><g transform="translate(996.035 442.123)"><rect class="a" width="0.674" height="1.01"/></g><g transform="translate(998.73 442.123)"><rect class="a" width="0.674" height="1.01"/></g><g transform="translate(1000.077 442.123)"><rect class="a" width="0.674" height="1.01"/></g><g transform="translate(1001.424 442.123)"><rect class="a" width="0.674" height="1.01"/></g><g transform="translate(1002.771 442.123)"><rect class="a" width="0.674" height="1.01"/></g><g transform="translate(1004.118 442.123)"><rect class="a" width="0.674" height="1.01"/></g><g transform="translate(999.066 432.021)"><rect class="a" width="0.674" height="9.429"/></g></g></svg>