<svg xmlns="http://www.w3.org/2000/svg" width="33.135" height="31.479" viewBox="0 0 33.135 31.479"><defs><style>.a{fill:#9f9f9f;}</style></defs><path class="a" d="M16.568,1.5C7.432,1.5,0,8.189,0,16.411a13.784,13.784,0,0,0,2.633,8.065c-.326,3.61-1.2,6.29-2.471,7.56a.552.552,0,0,0,.39.943.518.518,0,0,0,.077-.006,29.5,29.5,0,0,0,9.177-2.948,17.976,17.976,0,0,0,6.761,1.3c9.135,0,16.568-6.689,16.568-14.911S25.7,1.5,16.568,1.5ZM8.836,18.62a2.209,2.209,0,1,1,2.209-2.209A2.211,2.211,0,0,1,8.836,18.62Zm7.732,0a2.209,2.209,0,1,1,2.209-2.209A2.211,2.211,0,0,1,16.568,18.62Zm7.732,0a2.209,2.209,0,1,1,2.209-2.209A2.211,2.211,0,0,1,24.3,18.62Z" transform="translate(0 -1.5)"/></svg>