<svg xmlns="http://www.w3.org/2000/svg" width="12.217" height="13.964" viewBox="0 0 12.217 13.964"><defs><style>.a{fill:#4e4e4e;}</style></defs><path class="a" d="M41.781.105a.434.434,0,0,0-.576.007A8.469,8.469,0,0,0,38.885,3.5a6.632,6.632,0,0,0,.606,3.38,7.334,7.334,0,0,1,.557,2.169c0,.527-.245.811-.475.811-.207,0-.424-.246-.424-.717,0-.581,0-2.269-1.473-2.493V2.7a.358.358,0,0,0-.39-.35H36.76v-.4a.358.358,0,0,0-.39-.35H32.249a.389.389,0,0,0-.424.35v.4h-.441a.389.389,0,0,0-.424.35v9.674h-.848a.389.389,0,0,0-.424.35v.839a.426.426,0,0,0,.424.4h8.446a.4.4,0,0,0,.39-.4v-.839a.358.358,0,0,0-.39-.35h-.882V7.409c.305.1.659.467.659,1.729A1.3,1.3,0,0,0,39.569,10.6,1.389,1.389,0,0,0,40.86,9.045a7.736,7.736,0,0,0-.6-2.4,13.409,13.409,0,0,1-.541-1.771,1.674,1.674,0,0,0,1.287-.83,2.246,2.246,0,0,0-.443-2.054A11.362,11.362,0,0,1,41.789.633.351.351,0,0,0,41.781.105ZM36.76,6.224a.391.391,0,0,1-.407.373H32.232a.391.391,0,0,1-.407-.373V3.567a.391.391,0,0,1,.407-.373h4.121a.391.391,0,0,1,.407.373Zm3.505-2.481a.865.865,0,0,1-.626.384,2.335,2.335,0,0,1,.046-.49,3.221,3.221,0,0,1,.394-.927A1.279,1.279,0,0,1,40.265,3.743Z" transform="translate(-29.688 0)"/></svg>