<svg xmlns="http://www.w3.org/2000/svg" width="15.858" height="18.124" viewBox="0 0 15.858 18.124"><defs><style>.a{fill:#4e4e4e;}</style></defs><path class="a" d="M7.929,18.124a2.265,2.265,0,0,0,2.264-2.265H5.665A2.265,2.265,0,0,0,7.929,18.124Zm7.624-5.3c-.684-.735-1.964-1.84-1.964-5.462A5.59,5.59,0,0,0,9.061,1.87V1.133a1.132,1.132,0,1,0-2.264,0V1.87A5.59,5.59,0,0,0,2.268,7.363c0,3.621-1.28,4.727-1.964,5.462a1.106,1.106,0,0,0-.3.768,1.134,1.134,0,0,0,1.136,1.133H14.722a1.133,1.133,0,0,0,1.136-1.133A1.105,1.105,0,0,0,15.553,12.824Z" transform="translate(0)"/></svg>