<svg xmlns="http://www.w3.org/2000/svg" width="14.53" height="18.121" viewBox="0 0 14.53 18.121"><defs><style>.a{fill:#343434;}</style></defs><path class="a" d="M2075.589-7220.99h-.891v-2.585a5.435,5.435,0,0,0-5.434-5.425,5.436,5.436,0,0,0-5.434,5.425v2.585h-.891a.939.939,0,0,0-.94.938v8.234a.939.939,0,0,0,.94.938h12.65a.939.939,0,0,0,.94-.938v-8.234A.939.939,0,0,0,2075.589-7220.99Zm-9.477-2.585a3.153,3.153,0,0,1,3.152-3.146,3.153,3.153,0,0,1,3.152,3.146v2.585h-6.3Zm4.176,7.953v1.683a1.023,1.023,0,0,1-1.024,1.022,1.023,1.023,0,0,1-1.025-1.022v-1.683a1.644,1.644,0,0,1-.626-1.291,1.649,1.649,0,0,1,1.65-1.648,1.649,1.649,0,0,1,1.65,1.648A1.643,1.643,0,0,1,2070.289-7215.623Z" transform="translate(-2061.999 7229)"/></svg>