<svg xmlns="http://www.w3.org/2000/svg" width="22.892" height="17.609" viewBox="0 0 22.892 17.609"><defs><style>.a{fill:#4e4e4e;}</style></defs><g transform="translate(0 -52.552)"><g transform="translate(0 52.552)"><path class="a" d="M89.094,52.552q.029.73.059,1.461H88.2q.029-.73.059-1.461H85.957L81.32,70.161h6.236q.029-.731.059-1.461h2.128q.03.73.059,1.461h6.236L91.4,52.552ZM88.117,56.2H89.24q.082,2.031.163,4.063h-1.45Q88.035,58.232,88.117,56.2ZM87.7,66.513q.082-2.031.163-4.062h1.626q.082,2.031.163,4.062Z" transform="translate(-77.232 -52.552)"/><path class="a" d="M297.093,52.552h-.785l5.875,17.609h2.123Z" transform="translate(-281.413 -52.552)"/><path class="a" d="M7.213,52.552,0,70.161H2.123L8,52.552Z" transform="translate(0 -52.552)"/></g></g></svg>