<svg xmlns="http://www.w3.org/2000/svg" width="19.227" height="12.643" viewBox="0 0 19.227 12.643"><defs><style>.a{fill:#4e4e4e;}</style></defs><g transform="translate(0 0)"><path class="a" d="M751.949,582.561c0-.042,0-.084,0-.126s0-.084,0-.127v-.1l0-.053-.016-.212,0-.054-.006-.07-.013-.138c0-.046-.009-.092-.014-.138,0-.023,0-.046-.007-.069l-.008-.063c-.023-.167-.044-.331-.073-.488-.014-.079-.027-.156-.041-.232l-.046-.221c-.028-.144-.064-.278-.094-.4l-.023-.091-.024-.086-.045-.159c-.014-.05-.027-.1-.04-.139l-.038-.117-.042-.131a.1.1,0,0,0-.122-.065l-3.251.926a.1.1,0,0,0-.071.114l.012.065.015.081c.005.029.01.062.015.1l.017.109c0,.019.006.039.009.059l.007.062c.009.085.023.176.028.273q.006.073.012.149c0,.051,0,.1.007.156.007.106.006.215.008.326v.078c0,.024,0,.049,0,.073s0,.049,0,.073v.037l0,.053-.009.212,0,.053v.008c0,.008,0-.063,0-.032v.013l0,.021c0,.028-.005.055-.008.083l-.007.082-.01.081c-.007.054-.011.107-.02.159l-.022.152-.025.145c-.008.047-.017.093-.026.137s-.017.087-.026.127l-.027.116-.012.053-.012.043-.007.025h3.976a.1.1,0,0,0,.1-.1h0q.005-.111.01-.228c0-.078,0-.157,0-.238s0-.163,0-.245C751.95,582.644,751.95,582.6,751.949,582.561Z" transform="translate(-732.725 -570.85)"/><path class="a" d="M655.863,335.365a.1.1,0,0,0,.053-.135l-.038-.081-.045-.1-.069-.14-.079-.159c-.014-.029-.028-.053-.042-.08l-.044-.082c-.03-.056-.061-.114-.094-.173l-.106-.182-.056-.095-.06-.1-.124-.2c-.088-.13-.177-.267-.275-.4l-.073-.1-.037-.05-.038-.05-.153-.2c-.052-.065-.106-.13-.159-.194-.027-.032-.053-.064-.08-.1l-.082-.093-.081-.092c-.027-.031-.054-.061-.082-.09l-.163-.174c-.054-.057-.109-.11-.162-.164s-.1-.105-.158-.154l-.152-.142c-.049-.046-.1-.088-.146-.13l-.135-.118-.125-.1-.11-.09c-.034-.028-.066-.052-.095-.074l-.1-.08a.1.1,0,0,0-.138.016l-1.745,2.112a.1.1,0,0,0,.007.134l.05.05c.018.018.039.038.06.06l.069.073.078.082.084.095c.029.033.06.066.09.1l.094.113c.033.038.064.079.1.121s.066.083.1.128l.1.135c.017.022.033.046.049.07l.048.071.049.071c.016.024.031.049.047.073.031.049.063.1.093.147l.088.15.022.037.021.038.041.075c.057.1.1.2.154.3l.067.145.033.07.029.069.057.132.049.126.023.059c.007.019.016.039.021.055l.032.093.029.081.032.1.028.085a.1.1,0,0,0,.132.061Z" transform="translate(-637.673 -327.827)"/><path class="a" d="M451.954,237.144l.088.012.1.018.116.02c.035.006.072.015.111.023l1.1-2.252-.162-.025-.108-.016-.106-.013-.2-.024-.189-.016c-.061,0-.119-.011-.174-.013l-.157-.008-.138-.007-.117,0-.126,0a.1.1,0,0,0-.1.1l-.1,2.1a.1.1,0,0,0,.086.1Z" transform="translate(-442.649 -233.378)"/><path class="a" d="M596.124,268.921l.084.061.074.053.039.029.039.029.072.053a.1.1,0,0,0,.143-.025l1.438-2.19a.1.1,0,0,0-.034-.141l-.077-.044-.042-.024-.051-.029-.132-.073-.151-.082-.159-.08c-.056-.027-.113-.057-.173-.085l-.188-.086c-.064-.03-.132-.058-.2-.086s-.138-.059-.21-.086l-.055-.021-.62,2.692c.034.022.067.044.1.065Z" transform="translate(-583.859 -264.001)"/><path class="a" d="M188.136,240.036l.082-.011.081-.008.154-.016.145-.01.068,0c.022,0,.044,0,.063,0l.111,0,.1,0h.191a.1.1,0,0,0,.1-.106l-.129-1.975a.1.1,0,0,0-.112-.093l-.088.011-.1.013-.143.021-.163.025c-.029,0-.056.01-.085.015l-.087.017-.184.035-.2.044-.1.023-.1.027-.213.057-.218.066-.111.034-.111.038-.111.038c-.037.013-.075.025-.111.04l-.222.085c-.074.029-.146.061-.219.091l-.108.046-.106.049-.105.049c-.035.016-.07.032-.1.05l-.2.1c-.066.033-.129.069-.191.1s-.123.067-.181.1l-.169.1c-.055.032-.105.066-.155.1l-.142.091-.125.086-.11.076c-.034.023-.064.046-.091.066l-.1.07a.1.1,0,0,0-.023.136l.82,1.206a.1.1,0,0,0,.131.031l.074-.042c.024-.013.051-.029.081-.045l.1-.05.11-.057.124-.059c.043-.02.087-.043.135-.063l.146-.064c.049-.023.1-.043.155-.064s.107-.044.163-.064l.169-.061c.028-.011.058-.02.087-.029l.088-.028.089-.029.09-.026c.06-.017.12-.035.181-.051l.182-.045c.03-.008.061-.014.091-.021l.091-.019.09-.019.089-.016.175-.03Z" transform="translate(-180.761 -236.281)"/><path class="a" d="M24.681,359.544l-.065.092-.065.092c-.022.031-.042.063-.063.095-.042.063-.084.126-.125.191l-.119.194-.03.048-.028.049-.056.1c-.076.129-.141.26-.208.385l-.092.188-.044.091-.04.09-.077.172-.067.163c-.021.052-.043.1-.061.15l-.051.137-.045.12-.035.1-.035.1a.1.1,0,0,0,.059.125l.763.293a.1.1,0,0,0,.126-.05l.04-.083.042-.087.053-.1.06-.115c.021-.04.045-.082.07-.125l.076-.136.086-.142.045-.074.048-.075.1-.154c.072-.1.142-.209.221-.312l.058-.078.029-.039.031-.039.123-.154c.042-.051.085-.1.127-.151.021-.025.042-.05.064-.074l.065-.072.065-.072c.021-.024.043-.047.065-.07l.13-.134c.043-.044.087-.085.129-.126s.083-.082.125-.119l.121-.11c.039-.036.078-.067.115-.1l.106-.09.094-.074.082-.065.041-.031.039-.03.071-.054a.1.1,0,0,0,.016-.144l-.869-1.018a.1.1,0,0,0-.145-.007l-.064.062-.035.034-.04.039-.1.1-.109.111-.112.122c-.039.043-.08.086-.121.133l-.126.146c-.044.049-.086.1-.129.156s-.088.108-.132.165l-.132.174C24.724,359.484,24.7,359.514,24.681,359.544Z" transform="translate(-22.897 -354.23)"/><path class="a" d="M.206,597.708l-.018.087-.02.1c-.007.037-.014.082-.022.127l-.025.145c0,.026-.009.052-.013.078l-.011.081c-.014.11-.033.229-.044.356l-.019.194c-.005.066-.009.135-.014.2-.011.138-.013.281-.017.425v.219c0,.036,0,.073,0,.11v.055l0,.055.009.219,0,.055v.031l0,.026.008.1.008.1.01.107.01.106.005.052.006.051.025.2.029.19c.009.062.02.122.031.18l0,.014a.1.1,0,0,0,.1.081H.522a.1.1,0,0,0,.1-.106l0-.046c0-.056-.007-.113-.009-.173L.6,600.961c0-.062,0-.126,0-.19v-.1l0-.1,0-.1,0-.1,0-.1v-.041s0,0,0,0v-.01l0-.051.016-.2,0-.051.006-.051.012-.1.012-.1.006-.05.007-.05c.02-.133.038-.264.063-.389.012-.063.023-.124.035-.184l.039-.176c.024-.114.054-.22.079-.319l.019-.072c.006-.023.013-.045.02-.067l.037-.123c.012-.039.021-.073.033-.108l.032-.1.028-.085A.1.1,0,0,0,1,597.811l-.674-.18A.1.1,0,0,0,.206,597.708Z" transform="translate(0 -588.825)"/><path class="a" d="M345.164,175.039a1.551,1.551,0,0,0,2.076-.713,1.637,1.637,0,0,0,.118-.333l1.57-6.815.6-2.6.37-1.608a.254.254,0,0,0-.255-.315.244.244,0,0,0-.224.145l-.754,1.542-1.112,2.275-3.1,6.341A1.552,1.552,0,0,0,345.164,175.039Zm.738-2.195a.761.761,0,1,1-.761.761A.761.761,0,0,1,345.9,172.844Z" transform="translate(-337.326 -162.661)"/></g></svg>