<svg xmlns="http://www.w3.org/2000/svg" width="21.021" height="13.849" viewBox="0 0 21.021 13.849"><defs><style>.a{fill:#4e4e4e;stroke:#000;stroke-linecap:round;stroke-linejoin:round;stroke-width:0;}</style></defs><path class="a" d="M20.876,71.463A.427.427,0,0,0,20.5,71.2H18.581a.427.427,0,0,0-.375.259,3.11,3.11,0,0,0-.11.389L16.813,68.3a1.487,1.487,0,0,0-1.394-.979H5.6A1.487,1.487,0,0,0,4.21,68.3l-1.283,3.55a3.12,3.12,0,0,0-.11-.389.427.427,0,0,0-.375-.259H.522a.427.427,0,0,0-.375.259,1.892,1.892,0,0,0,0,1.457.427.427,0,0,0,.375.259H2.448l-.029.08a.985.985,0,0,0-.674.934V80.7a.473.473,0,0,0,.473.473H4.6a.473.473,0,0,0,.473-.473V78.4H15.949v2.3a.473.473,0,0,0,.473.473h2.382a.473.473,0,0,0,.473-.473V74.193a.985.985,0,0,0-.674-.934l-.029-.08H20.5a.427.427,0,0,0,.375-.259A1.892,1.892,0,0,0,20.876,71.463Zm-15.09-2.4h9.45l1.5,4.142H4.289Zm.264,7.06H4.057a.774.774,0,1,1,0-1.548H6.05a.774.774,0,1,1,0,1.548Zm10.917,0H14.973a.774.774,0,1,1,0-1.548h1.993a.774.774,0,1,1,0,1.548Z" transform="translate(-0.001 -67.324)"/></svg>