<svg xmlns="http://www.w3.org/2000/svg" width="35.613" height="31.301" viewBox="0 0 35.613 31.301"><defs><style>.a{fill:#9f9f9f;}</style></defs><g transform="translate(-998.21 -65.939)"><path class="a" d="M11.546,20.867H30.4a1.04,1.04,0,0,0,1-.757L35.573,5.5a1.042,1.042,0,0,0-1-1.33H9.138L8.392.817A1.043,1.043,0,0,0,7.373,0H1.043a1.043,1.043,0,0,0,0,2.087H6.535L10.3,19.041a3.128,3.128,0,0,0,1.243,6H30.4a1.043,1.043,0,0,0,0-2.087H11.546a1.043,1.043,0,0,1,0-2.087Zm0,0" transform="translate(998.21 65.938)"/><path class="a" d="M257.7,617.531a3.13,3.13,0,1,0,3.13-3.13A3.134,3.134,0,0,0,257.7,617.531Zm0,0" transform="translate(751.009 -523.422)"/><path class="a" d="M617.815,617.531a3.13,3.13,0,1,0,3.13-3.13A3.133,3.133,0,0,0,617.815,617.531Zm0,0" transform="translate(405.575 -523.422)"/></g></svg>