<svg xmlns="http://www.w3.org/2000/svg" width="24" height="24" viewBox="0 0 24 24"><defs><style>.a{fill:#008d0e;}</style></defs><path class="a" d="M12,24A12,12,0,1,1,24,12,12.013,12.013,0,0,1,12,24ZM12,1.5A10.5,10.5,0,1,0,22.5,12,10.512,10.512,0,0,0,12,1.5Zm0,0"/><path class="a" d="M150.707,178.725a.751.751,0,0,1-.535-.222l-3.279-3.279a.757.757,0,0,1,1.071-1.071l2.744,2.744,6.023-6.023a.757.757,0,0,1,1.07,1.07l-6.558,6.558A.758.758,0,0,1,150.707,178.725Zm0,0" transform="translate(-139.851 -162.689)"/></svg>