<svg xmlns="http://www.w3.org/2000/svg" width="18" height="18" viewBox="0 0 18 18"><defs><style>.a{fill:#4e4e4e;}</style></defs><path class="a" d="M9,0a9,9,0,1,0,9,9A9,9,0,0,0,9,0Zm.545,13.009v1.042a.279.279,0,0,1-.289.281H8.561a.283.283,0,0,1-.294-.281V13.1a5.962,5.962,0,0,1-1.772-.351.556.556,0,0,1-.342-.658l.113-.441a.557.557,0,0,1,.74-.381,4.469,4.469,0,0,0,1.6.311c.747,0,1.258-.288,1.258-.812,0-.5-.419-.812-1.389-1.14-1.4-.472-2.362-1.126-2.362-2.4A2.424,2.424,0,0,1,8.325,4.9v-.95a.313.313,0,0,1,.3-.308h.694a.3.3,0,0,1,.282.308v.858a5.172,5.172,0,0,1,1.418.237.558.558,0,0,1,.37.667l-.1.395a.556.556,0,0,1-.719.388,4.011,4.011,0,0,0-1.324-.219c-.851,0-1.127.367-1.127.734,0,.432.459.707,1.572,1.127,1.559.55,2.185,1.271,2.185,2.449A2.51,2.51,0,0,1,9.545,13.009Z"/></svg>