<svg xmlns="http://www.w3.org/2000/svg" width="18" height="18.177" viewBox="0 0 18 18.177"><defs><style>.a{fill:#4e4e4e;}</style></defs><path class="a" d="M18.283.732a.527.527,0,0,0-.511-.511L10.581,0a.528.528,0,0,0-.391.156L1.315,9.125a2.842,2.842,0,0,0,0,3.986l4.2,4.24a2.781,2.781,0,0,0,3.96,0l8.875-8.967A.528.528,0,0,0,18.5,8ZM11.457,11.876a.527.527,0,0,1-.746,0l-.229-.23-.38.38a.527.527,0,0,1-.746-.746l1.01-1.01a.485.485,0,0,0-.686-.686l-.257.257h0l-.257.257A1.54,1.54,0,0,1,6.879,8.043l-.236-.236a.527.527,0,1,1,.746-.746l.23.23.24-.241a.527.527,0,1,1,.746.746l-.871.871a.485.485,0,0,0,.686.686L8.677,9.1h0l.257-.257a1.54,1.54,0,0,1,2.287,2.056l.236.236a.528.528,0,0,1,0,.746ZM15.189,5.59a1.582,1.582,0,1,1,0-2.238A1.577,1.577,0,0,1,15.189,5.59Zm0,0" transform="translate(-0.499 -0.002)"/></svg>