<svg xmlns="http://www.w3.org/2000/svg" width="14.53" height="18.121" viewBox="0 0 14.53 18.121"><defs><style>.a{fill:#343434;}</style></defs><path class="a" d="M2188.589-7959.878h-12.65a.941.941,0,0,1-.94-.938v-8.234a.938.938,0,0,1,.832-.932H2182v-.007h3.417v-2.586a3.154,3.154,0,0,0-3.152-3.146,3.144,3.144,0,0,0-2.647,1.441h-2.511a5.39,5.39,0,0,1,.771-1.492,5.463,5.463,0,0,1,1.177-1.177,5.389,5.389,0,0,1,3.21-1.05,5.435,5.435,0,0,1,5.434,5.424v2.586h.891a.94.94,0,0,1,.94.938v8.234A.941.941,0,0,1,2188.589-7959.878Zm-6.325-7.683a1.651,1.651,0,0,0-1.65,1.647,1.64,1.64,0,0,0,.626,1.292v1.683a1.024,1.024,0,0,0,1.024,1.022,1.024,1.024,0,0,0,1.024-1.022v-1.683a1.639,1.639,0,0,0,.626-1.292A1.651,1.651,0,0,0,2182.264-7967.561Z" transform="translate(-2174.999 7978)"/></svg>