<svg xmlns="http://www.w3.org/2000/svg" width="19.494" height="19.494" viewBox="0 0 19.494 19.494"><defs><style>.a{fill:#343434;}</style></defs><path class="a" d="M10.585,14.508v-4H15.42A2.287,2.287,0,0,0,17.7,8.224V4.986a2.551,2.551,0,1,0-1.523,0V8.224a.762.762,0,0,1-.761.761H10.585v-4a2.551,2.551,0,1,0-1.523,0v4H4.074a.762.762,0,0,1-.761-.761V4.986a2.551,2.551,0,1,0-1.523,0V8.224a2.275,2.275,0,0,0,.584,1.523A2.275,2.275,0,0,0,1.79,11.27v3.238a2.551,2.551,0,1,0,1.523,0V11.27a.762.762,0,0,1,.761-.761H9.062v4a2.551,2.551,0,1,0,1.523,0ZM16.943,1.523a1.028,1.028,0,1,1-1.028,1.028A1.029,1.029,0,0,1,16.943,1.523Zm-7.12,0A1.028,1.028,0,1,1,8.8,2.551,1.029,1.029,0,0,1,9.823,1.523Zm-7.272,0A1.028,1.028,0,1,1,1.523,2.551,1.029,1.029,0,0,1,2.551,1.523Zm0,16.448a1.028,1.028,0,1,1,1.028-1.028A1.029,1.029,0,0,1,2.551,17.971Zm7.272,0a1.028,1.028,0,1,1,1.028-1.028A1.029,1.029,0,0,1,9.823,17.971Zm9.671-2.913a2.116,2.116,0,0,0-2.113-2.113H14.849v6.549h1.523V17.172h.2l1.183,2.323h1.709L18.2,17.006A2.116,2.116,0,0,0,19.494,15.058Zm-3.122-.59h1.009a.59.59,0,0,1,0,1.18H16.372Z"/></svg>