<svg xmlns="http://www.w3.org/2000/svg" width="18.984" height="19.784" viewBox="0 0 18.984 19.784"><defs><style>.a{fill:#4e4e4e;}</style></defs><g transform="translate(0 0)"><path class="a" d="M28.427,10.146a.58.58,0,0,1,0-.512l.738-1.509a1.717,1.717,0,0,0-.741-2.281L26.94,5.056a.58.58,0,0,1-.3-.415l-.29-1.655a1.718,1.718,0,0,0-1.94-1.41l-1.664.235a.58.58,0,0,1-.487-.158L21.05.486a1.717,1.717,0,0,0-2.4,0L17.444,1.654a.58.58,0,0,1-.487.158l-1.664-.235a1.717,1.717,0,0,0-1.94,1.41l-.29,1.655a.58.58,0,0,1-.3.415l-1.484.787a1.717,1.717,0,0,0-.741,2.281l.738,1.509a.58.58,0,0,1,0,.512l-.738,1.509a1.717,1.717,0,0,0,.741,2.281l1.484.787a.58.58,0,0,1,.3.415l.29,1.655a1.716,1.716,0,0,0,1.693,1.427,1.764,1.764,0,0,0,.247-.017l1.664-.235a.58.58,0,0,1,.487.158l1.208,1.168a1.717,1.717,0,0,0,2.4,0l1.208-1.168a.58.58,0,0,1,.487-.158l1.664.235a1.717,1.717,0,0,0,1.94-1.41l.29-1.655a.58.58,0,0,1,.3-.415l1.484-.787a1.717,1.717,0,0,0,.741-2.281ZM17.569,4.755a2.092,2.092,0,1,1-2.092,2.092A2.094,2.094,0,0,1,17.569,4.755Zm-1.08,9.3a.571.571,0,0,1-.807-.807l7.531-7.531a.571.571,0,0,1,.807.807Zm5.644.966a2.092,2.092,0,1,1,2.092-2.092A2.094,2.094,0,0,1,22.133,15.025Z" transform="translate(-10.359 0.002)"/></g></svg>