<svg xmlns="http://www.w3.org/2000/svg" width="16.98" height="16.981" viewBox="0 0 16.98 16.981"><defs><style>.a{fill:#4e4e4e;}</style></defs><g transform="translate(11.547 4.435)"><path class="a" d="M349.012,133.864a.5.5,0,1,0,0,.7A.493.493,0,0,0,349.012,133.864Z" transform="translate(-348.161 -133.716)"/></g><g transform="translate(6.622 6.545)"><path class="a" d="M200.521,197.5a.5.5,0,1,0,0,.7A.493.493,0,0,0,200.521,197.5Z" transform="translate(-199.669 -197.355)"/></g><g transform="translate(7.326 11.47)"><path class="a" d="M221.734,346a.5.5,0,1,0,0,.7A.492.492,0,0,0,221.734,346Z" transform="translate(-220.882 -345.848)"/></g><g transform="translate(0 0.324)"><g transform="translate(0)"><path class="a" d="M16.612,16.52l-1.126-4.5a1.584,1.584,0,0,0-.106-.274L13.39,13.734a1.492,1.492,0,1,1-.7-.7l1.991-1.991a1.584,1.584,0,0,0-.274-.106L9.9,9.808a1.5,1.5,0,0,0-1.421.394L.438,18.243a1.49,1.49,0,0,0,0,2.111l5.628,5.628a1.49,1.49,0,0,0,2.111,0l8.041-8.041A1.5,1.5,0,0,0,16.612,16.52ZM6.066,15.429a1.492,1.492,0,1,1,0,2.111A1.49,1.49,0,0,1,6.066,15.429Zm2.814,7.035a1.492,1.492,0,1,1,0-2.111A1.49,1.49,0,0,1,8.881,22.465Zm1.814-3.375-6.332.7a.5.5,0,1,1-.11-.989l6.332-.7a.5.5,0,1,1,.11.989Z" transform="translate(0 -9.764)"/></g></g><g transform="translate(14.678)"><path class="a" d="M444.715.148a.493.493,0,0,0-.7,0L442.56,1.6a1.426,1.426,0,0,1,.7.7L444.715.851A.493.493,0,0,0,444.715.148Z" transform="translate(-442.56 0)"/></g></svg>