<svg xmlns="http://www.w3.org/2000/svg" width="35.948" height="35.949" viewBox="0 0 35.948 35.949"><defs><style>.a{fill:#9f9f9f;}.b{fill:#f0f0f0;}</style></defs><path class="a" d="M29.477,31.78h0a4.755,4.755,0,0,0-.943-.632l-5.743-2.871a2.189,2.189,0,0,1-1.211-1.959V24.064a8.7,8.7,0,0,0,.543-.7,13.211,13.211,0,0,0,1.785-3.6,1.794,1.794,0,0,0,1.279-1.716V15.647a1.8,1.8,0,0,0-.6-1.333V10.837a4.525,4.525,0,0,0-.043-1.163,4.623,4.623,0,0,0-1.066-2.33c-1.116-1.272-2.968-1.918-5.5-1.918s-4.389.645-5.5,1.918A4.623,4.623,0,0,0,11.4,9.674a4.541,4.541,0,0,0-.043,1.163v3.477a1.807,1.807,0,0,0-.6,1.333v2.405a1.8,1.8,0,0,0,.832,1.513A11.712,11.712,0,0,0,12.9,22.8a10.377,10.377,0,0,0,.862,1.269v2.2a2.19,2.19,0,0,1-1.141,1.923L7.261,31.111a4.757,4.757,0,0,0-.853.606,18.075,18.075,0,0,1-4.737-6.176A17.965,17.965,0,0,1,17.969,0l.314,0A17.957,17.957,0,0,1,35.946,18.282a18.055,18.055,0,0,1-.505,3.949,17.89,17.89,0,0,1-3.331,6.842,18.137,18.137,0,0,1-2.631,2.707Z" transform="translate(0 0)"/><g transform="translate(6.421 5.427)"><path class="b" d="M15.661,30.758,10.3,33.684a4.82,4.82,0,0,0-.861.612,17.963,17.963,0,0,0,23.08.06,4.758,4.758,0,0,0-.946-.634l-5.743-2.871a2.19,2.19,0,0,1-1.211-1.959V26.639a8.675,8.675,0,0,0,.543-.7,13.215,13.215,0,0,0,1.785-3.6,1.8,1.8,0,0,0,1.279-1.716V18.222a1.8,1.8,0,0,0-.6-1.333V13.412S28.339,8,21.011,8,14.4,13.412,14.4,13.412v3.477a1.793,1.793,0,0,0-.6,1.333v2.405a1.8,1.8,0,0,0,.832,1.513,11.936,11.936,0,0,0,2.175,4.5v2.2A2.192,2.192,0,0,1,15.661,30.758Z" transform="translate(-9.437 -8.001)"/></g></svg>