<?xml version="1.0" encoding="utf-8"?>
<!-- Generator: Adobe Illustrator 16.0.0, SVG Export Plug-In . SVG Version: 6.00 Build 0)  -->
<!DOCTYPE svg PUBLIC "-//W3C//DTD SVG 1.1//EN" "http://www.w3.org/Graphics/SVG/1.1/DTD/svg11.dtd">
<svg version="1.1" id="Layer_1" xmlns="http://www.w3.org/2000/svg" xmlns:xlink="http://www.w3.org/1999/xlink" x="0px" y="0px"
	 width="24px" height="24px" viewBox="0 0 24 24" enable-background="new 0 0 24 24" xml:space="preserve">
<path display="none" d="M12,24C5.373,24,0,18.627,0,12C0,5.373,5.373,0,12,0c6.627,0,12,5.373,12,12
	C23.992,18.625,18.625,23.992,12,24z M12,1.5C6.201,1.5,1.5,6.201,1.5,12S6.201,22.5,12,22.5S22.5,17.799,22.5,12
	C22.493,6.204,17.797,1.507,12,1.5z"/>
<path display="none" d="M10.856,16.036c-0.201,0.001-0.394-0.079-0.535-0.222l-3.279-3.279c-0.296-0.296-0.296-0.775,0-1.071
	c0.296-0.295,0.775-0.295,1.071,0l2.744,2.744l6.023-6.023c0.306-0.286,0.784-0.271,1.07,0.034c0.272,0.292,0.272,0.745,0,1.036
	l-6.558,6.558C11.25,15.955,11.057,16.035,10.856,16.036z"/>
<image overflow="visible" width="217" height="217" xlink:href="warningsymbol.png"  transform="matrix(0.116 0 0 0.116 -0.416 -0.75)">
</image>
</svg>
