<svg xmlns="http://www.w3.org/2000/svg" width="14.144" height="16.164" viewBox="0 0 14.144 16.164"><defs><style>.a{fill:#343434;}</style></defs><g transform="translate(0)"><path class="a" d="M98.795.016,92.733,0a2.1,2.1,0,0,0-2.021,2.021l-.584.014a2.023,2.023,0,0,0-1.942,2.007v10.1a2.1,2.1,0,0,0,2.021,2.02h7.577a2.1,2.1,0,0,0,2.021-2.02h.505a2.1,2.1,0,0,0,2.021-2.02V4.053Zm-1.01,15.138H90.208a1.059,1.059,0,0,1-1.01-1.01V4.041c0-.752.618-1.01,1.515-1.01v9.092a2.1,2.1,0,0,0,2.021,2.02l6.066-.006A.955.955,0,0,1,97.784,15.154Zm1.01-4.541H94.249a.5.5,0,1,1,0-1.009h4.546a.5.5,0,1,1,0,1.009Zm0-2.523H94.249a.5.5,0,1,1,0-1.009h4.546a.5.5,0,1,1,0,1.009ZM99.8,4.041a1.046,1.046,0,0,1-1.01-1.01v-2h0l2.526,3.016Z" transform="translate(-88.187)"/></g></svg>